<mxfile host="app.diagrams.net" modified="2021-11-25T20:14:01.973Z" agent="5.0 (X11)" etag="h4ofml71Q5I9knOox-CM" version="15.8.5" type="github">
  <diagram id="RV5CSDYpfyLuxDymEW0m" name="Page-1">
    <mxGraphModel dx="1185" dy="643" grid="1" gridSize="10" guides="1" tooltips="1" connect="1" arrows="1" fold="1" page="1" pageScale="1" pageWidth="827" pageHeight="1169" math="0" shadow="0">
      <root>
        <mxCell id="0" />
        <mxCell id="1" parent="0" />
        <mxCell id="a6lOTXQf3GXVWLe3gGw5-1" value="&lt;div&gt;App de Cupones&lt;/div&gt;&lt;div&gt;&lt;br&gt;&lt;/div&gt;" style="whiteSpace=wrap;html=1;aspect=fixed;fillColor=none;labelPosition=center;verticalLabelPosition=top;align=center;verticalAlign=bottom;" vertex="1" parent="1">
          <mxGeometry x="180" y="70" width="820" height="820" as="geometry" />
        </mxCell>
        <mxCell id="a6lOTXQf3GXVWLe3gGw5-2" value="&lt;div&gt;Comprar Bono&lt;/div&gt;" style="ellipse;whiteSpace=wrap;html=1;fillColor=#dae8fc;strokeColor=#6c8ebf;" vertex="1" parent="1">
          <mxGeometry x="550" y="90" width="100" height="50" as="geometry" />
        </mxCell>
        <mxCell id="a6lOTXQf3GXVWLe3gGw5-3" value="&lt;div&gt;Usuario&lt;/div&gt;" style="shape=umlActor;verticalLabelPosition=bottom;verticalAlign=top;html=1;outlineConnect=0;fillColor=none;" vertex="1" parent="1">
          <mxGeometry x="110" y="170" width="30" height="60" as="geometry" />
        </mxCell>
        <mxCell id="a6lOTXQf3GXVWLe3gGw5-4" value="&lt;div&gt;Empresa&lt;/div&gt;&lt;div&gt;&lt;br&gt;&lt;/div&gt;" style="shape=umlActor;verticalLabelPosition=bottom;verticalAlign=top;html=1;outlineConnect=0;fillColor=none;" vertex="1" parent="1">
          <mxGeometry x="110" y="585" width="30" height="60" as="geometry" />
        </mxCell>
        <mxCell id="a6lOTXQf3GXVWLe3gGw5-5" value="&lt;div&gt;Administrador&lt;/div&gt;" style="shape=umlActor;verticalLabelPosition=bottom;verticalAlign=top;html=1;outlineConnect=0;fillColor=none;" vertex="1" parent="1">
          <mxGeometry x="1030" y="458" width="30" height="54" as="geometry" />
        </mxCell>
        <mxCell id="a6lOTXQf3GXVWLe3gGw5-7" value="Regalar Bono" style="ellipse;whiteSpace=wrap;html=1;fillColor=#dae8fc;strokeColor=#6c8ebf;" vertex="1" parent="1">
          <mxGeometry x="550" y="150" width="100" height="50" as="geometry" />
        </mxCell>
        <mxCell id="a6lOTXQf3GXVWLe3gGw5-8" value="Ofertar Bono" style="ellipse;whiteSpace=wrap;html=1;fillColor=#dae8fc;strokeColor=#6c8ebf;" vertex="1" parent="1">
          <mxGeometry x="490" y="592.5" width="100" height="50" as="geometry" />
        </mxCell>
        <mxCell id="a6lOTXQf3GXVWLe3gGw5-9" value="&lt;div&gt;Buscar Producto&lt;/div&gt;" style="ellipse;whiteSpace=wrap;html=1;fillColor=#dae8fc;strokeColor=#6c8ebf;" vertex="1" parent="1">
          <mxGeometry x="260" y="409" width="100" height="50" as="geometry" />
        </mxCell>
        <mxCell id="a6lOTXQf3GXVWLe3gGw5-10" value="Reservar Producto" style="ellipse;whiteSpace=wrap;html=1;fillColor=#dae8fc;strokeColor=#6c8ebf;" vertex="1" parent="1">
          <mxGeometry x="550" y="210" width="100" height="50" as="geometry" />
        </mxCell>
        <mxCell id="a6lOTXQf3GXVWLe3gGw5-11" value="Devolver Producto" style="ellipse;whiteSpace=wrap;html=1;fillColor=#dae8fc;strokeColor=#6c8ebf;" vertex="1" parent="1">
          <mxGeometry x="550" y="270" width="100" height="50" as="geometry" />
        </mxCell>
        <mxCell id="a6lOTXQf3GXVWLe3gGw5-12" value="Valorar Producto" style="ellipse;whiteSpace=wrap;html=1;fillColor=#dae8fc;strokeColor=#6c8ebf;" vertex="1" parent="1">
          <mxGeometry x="550" y="330" width="100" height="50" as="geometry" />
        </mxCell>
        <mxCell id="a6lOTXQf3GXVWLe3gGw5-13" value="Modificar oferta" style="ellipse;whiteSpace=wrap;html=1;fillColor=#dae8fc;strokeColor=#6c8ebf;" vertex="1" parent="1">
          <mxGeometry x="490" y="535" width="100" height="50" as="geometry" />
        </mxCell>
        <mxCell id="a6lOTXQf3GXVWLe3gGw5-14" value="Dar de alta a empresa" style="ellipse;whiteSpace=wrap;html=1;fillColor=#dae8fc;strokeColor=#6c8ebf;" vertex="1" parent="1">
          <mxGeometry x="730" y="397" width="110" height="53" as="geometry" />
        </mxCell>
        <mxCell id="a6lOTXQf3GXVWLe3gGw5-15" value="Dar de baja a empresa" style="ellipse;whiteSpace=wrap;html=1;fillColor=#dae8fc;strokeColor=#6c8ebf;" vertex="1" parent="1">
          <mxGeometry x="730" y="453.5" width="110" height="53" as="geometry" />
        </mxCell>
        <mxCell id="a6lOTXQf3GXVWLe3gGw5-16" value="Elegir mÃ©todo de pago" style="ellipse;whiteSpace=wrap;html=1;fillColor=#d5e8d4;strokeColor=#82b366;" vertex="1" parent="1">
          <mxGeometry x="780" y="147.5" width="110" height="55" as="geometry" />
        </mxCell>
        <mxCell id="a6lOTXQf3GXVWLe3gGw5-18" value="extend" style="endArrow=classic;html=1;rounded=0;exitX=0;exitY=0.5;exitDx=0;exitDy=0;entryX=0.955;entryY=0.324;entryDx=0;entryDy=0;dashed=1;entryPerimeter=0;" edge="1" parent="1" source="a6lOTXQf3GXVWLe3gGw5-13" target="a6lOTXQf3GXVWLe3gGw5-31">
          <mxGeometry width="50" height="50" relative="1" as="geometry">
            <mxPoint x="540" y="520" as="sourcePoint" />
            <mxPoint x="590" y="470" as="targetPoint" />
          </mxGeometry>
        </mxCell>
        <mxCell id="a6lOTXQf3GXVWLe3gGw5-19" value="extend" style="endArrow=classic;html=1;rounded=0;exitX=0;exitY=0.5;exitDx=0;exitDy=0;entryX=1;entryY=0.5;entryDx=0;entryDy=0;dashed=1;" edge="1" parent="1" source="a6lOTXQf3GXVWLe3gGw5-8" target="a6lOTXQf3GXVWLe3gGw5-31">
          <mxGeometry width="50" height="50" relative="1" as="geometry">
            <mxPoint x="135" y="625" as="sourcePoint" />
            <mxPoint x="260" y="595" as="targetPoint" />
          </mxGeometry>
        </mxCell>
        <mxCell id="a6lOTXQf3GXVWLe3gGw5-20" value="Identificarse" style="ellipse;whiteSpace=wrap;html=1;fillColor=#f8cecc;strokeColor=#b85450;" vertex="1" parent="1">
          <mxGeometry x="280" y="225.5" width="110" height="55" as="geometry" />
        </mxCell>
        <mxCell id="a6lOTXQf3GXVWLe3gGw5-21" value="extend" style="endArrow=classic;html=1;rounded=0;entryX=0.644;entryY=0.042;entryDx=0;entryDy=0;dashed=1;entryPerimeter=0;exitX=0;exitY=0.5;exitDx=0;exitDy=0;" edge="1" parent="1" source="a6lOTXQf3GXVWLe3gGw5-2" target="a6lOTXQf3GXVWLe3gGw5-20">
          <mxGeometry width="50" height="50" relative="1" as="geometry">
            <mxPoint x="460" y="115" as="sourcePoint" />
            <mxPoint x="379.99" y="184.49" as="targetPoint" />
          </mxGeometry>
        </mxCell>
        <mxCell id="a6lOTXQf3GXVWLe3gGw5-22" value="extend" style="endArrow=classic;html=1;rounded=0;exitX=0;exitY=0.5;exitDx=0;exitDy=0;entryX=1;entryY=0;entryDx=0;entryDy=0;dashed=1;" edge="1" parent="1" source="a6lOTXQf3GXVWLe3gGw5-7" target="a6lOTXQf3GXVWLe3gGw5-20">
          <mxGeometry width="50" height="50" relative="1" as="geometry">
            <mxPoint x="323.8908729652603" y="190.55456351736984" as="sourcePoint" />
            <mxPoint x="410" y="125" as="targetPoint" />
          </mxGeometry>
        </mxCell>
        <mxCell id="a6lOTXQf3GXVWLe3gGw5-23" value="extend" style="endArrow=classic;html=1;rounded=0;exitX=0;exitY=0.5;exitDx=0;exitDy=0;entryX=1;entryY=0.5;entryDx=0;entryDy=0;dashed=1;" edge="1" parent="1" source="a6lOTXQf3GXVWLe3gGw5-10" target="a6lOTXQf3GXVWLe3gGw5-20">
          <mxGeometry width="50" height="50" relative="1" as="geometry">
            <mxPoint x="323.8908729652603" y="190.55456351736984" as="sourcePoint" />
            <mxPoint x="410" y="185" as="targetPoint" />
          </mxGeometry>
        </mxCell>
        <mxCell id="a6lOTXQf3GXVWLe3gGw5-24" value="extend" style="endArrow=classic;html=1;rounded=0;exitX=0;exitY=0.5;exitDx=0;exitDy=0;dashed=1;" edge="1" parent="1" source="a6lOTXQf3GXVWLe3gGw5-11" target="a6lOTXQf3GXVWLe3gGw5-20">
          <mxGeometry width="50" height="50" relative="1" as="geometry">
            <mxPoint x="338.35000000000014" y="219.515" as="sourcePoint" />
            <mxPoint x="410" y="245" as="targetPoint" />
          </mxGeometry>
        </mxCell>
        <mxCell id="a6lOTXQf3GXVWLe3gGw5-25" value="extend" style="endArrow=classic;html=1;rounded=0;exitX=0.075;exitY=0.223;exitDx=0;exitDy=0;exitPerimeter=0;dashed=1;entryX=1;entryY=1;entryDx=0;entryDy=0;" edge="1" parent="1" source="a6lOTXQf3GXVWLe3gGw5-12" target="a6lOTXQf3GXVWLe3gGw5-20">
          <mxGeometry width="50" height="50" relative="1" as="geometry">
            <mxPoint x="323.8908729652603" y="229.44543648263004" as="sourcePoint" />
            <mxPoint x="410" y="300" as="targetPoint" />
          </mxGeometry>
        </mxCell>
        <mxCell id="a6lOTXQf3GXVWLe3gGw5-26" value="" style="endArrow=classic;html=1;rounded=0;exitX=0.5;exitY=0.5;exitDx=0;exitDy=0;entryX=0;entryY=0.5;entryDx=0;entryDy=0;exitPerimeter=0;" edge="1" parent="1" source="a6lOTXQf3GXVWLe3gGw5-3" target="a6lOTXQf3GXVWLe3gGw5-20">
          <mxGeometry width="50" height="50" relative="1" as="geometry">
            <mxPoint x="323.8908729652603" y="190.55456351736984" as="sourcePoint" />
            <mxPoint x="410" y="125" as="targetPoint" />
          </mxGeometry>
        </mxCell>
        <mxCell id="a6lOTXQf3GXVWLe3gGw5-27" value="" style="endArrow=classic;html=1;rounded=0;exitX=0.5;exitY=0.5;exitDx=0;exitDy=0;entryX=0;entryY=0.5;entryDx=0;entryDy=0;exitPerimeter=0;" edge="1" parent="1" source="a6lOTXQf3GXVWLe3gGw5-3" target="a6lOTXQf3GXVWLe3gGw5-9">
          <mxGeometry width="50" height="50" relative="1" as="geometry">
            <mxPoint x="135" y="210" as="sourcePoint" />
            <mxPoint x="290" y="210" as="targetPoint" />
          </mxGeometry>
        </mxCell>
        <mxCell id="a6lOTXQf3GXVWLe3gGw5-28" value="include" style="endArrow=classic;html=1;rounded=0;exitX=0;exitY=0.5;exitDx=0;exitDy=0;entryX=1;entryY=0.5;entryDx=0;entryDy=0;" edge="1" parent="1" source="a6lOTXQf3GXVWLe3gGw5-16" target="a6lOTXQf3GXVWLe3gGw5-7">
          <mxGeometry width="50" height="50" relative="1" as="geometry">
            <mxPoint x="397.47" y="202.02499999999986" as="sourcePoint" />
            <mxPoint x="470" y="187.5" as="targetPoint" />
          </mxGeometry>
        </mxCell>
        <mxCell id="a6lOTXQf3GXVWLe3gGw5-29" value="include" style="endArrow=classic;html=1;rounded=0;exitX=0;exitY=0;exitDx=0;exitDy=0;entryX=1;entryY=0.5;entryDx=0;entryDy=0;" edge="1" parent="1" source="a6lOTXQf3GXVWLe3gGw5-16" target="a6lOTXQf3GXVWLe3gGw5-2">
          <mxGeometry width="50" height="50" relative="1" as="geometry">
            <mxPoint x="570" y="187.5" as="sourcePoint" />
            <mxPoint x="610" y="152.5" as="targetPoint" />
          </mxGeometry>
        </mxCell>
        <mxCell id="a6lOTXQf3GXVWLe3gGw5-30" value="Ver Historial" style="ellipse;whiteSpace=wrap;html=1;fillColor=#dae8fc;strokeColor=#6c8ebf;" vertex="1" parent="1">
          <mxGeometry x="550" y="390" width="100" height="50" as="geometry" />
        </mxCell>
        <mxCell id="a6lOTXQf3GXVWLe3gGw5-31" value="Identificarse" style="ellipse;whiteSpace=wrap;html=1;fillColor=#f8cecc;strokeColor=#b85450;" vertex="1" parent="1">
          <mxGeometry x="280" y="590" width="110" height="55" as="geometry" />
        </mxCell>
        <mxCell id="a6lOTXQf3GXVWLe3gGw5-32" value="extend" style="endArrow=classic;html=1;rounded=0;exitX=0.075;exitY=0.273;exitDx=0;exitDy=0;dashed=1;exitPerimeter=0;entryX=0.674;entryY=0.967;entryDx=0;entryDy=0;entryPerimeter=0;" edge="1" parent="1" source="a6lOTXQf3GXVWLe3gGw5-30" target="a6lOTXQf3GXVWLe3gGw5-20">
          <mxGeometry width="50" height="50" relative="1" as="geometry">
            <mxPoint x="135" y="210" as="sourcePoint" />
            <mxPoint x="270" y="375" as="targetPoint" />
          </mxGeometry>
        </mxCell>
        <mxCell id="a6lOTXQf3GXVWLe3gGw5-35" value="" style="endArrow=classic;html=1;rounded=0;exitX=0.5;exitY=0.5;exitDx=0;exitDy=0;entryX=1;entryY=0.5;entryDx=0;entryDy=0;exitPerimeter=0;" edge="1" parent="1" source="a6lOTXQf3GXVWLe3gGw5-5" target="a6lOTXQf3GXVWLe3gGw5-14">
          <mxGeometry width="50" height="50" relative="1" as="geometry">
            <mxPoint x="869.0380592228746" y="363.7867965644035" as="sourcePoint" />
            <mxPoint x="956.9999999999959" y="460" as="targetPoint" />
          </mxGeometry>
        </mxCell>
        <mxCell id="a6lOTXQf3GXVWLe3gGw5-36" value="" style="endArrow=classic;html=1;rounded=0;entryX=0;entryY=0.5;entryDx=0;entryDy=0;exitX=0.5;exitY=0.5;exitDx=0;exitDy=0;exitPerimeter=0;" edge="1" parent="1" source="a6lOTXQf3GXVWLe3gGw5-4" target="a6lOTXQf3GXVWLe3gGw5-31">
          <mxGeometry width="50" height="50" relative="1" as="geometry">
            <mxPoint x="135" y="210" as="sourcePoint" />
            <mxPoint x="270" y="375" as="targetPoint" />
          </mxGeometry>
        </mxCell>
        <mxCell id="a6lOTXQf3GXVWLe3gGw5-37" value="include" style="endArrow=classic;html=1;rounded=0;exitX=0;exitY=1;exitDx=0;exitDy=0;entryX=1;entryY=0.5;entryDx=0;entryDy=0;" edge="1" parent="1" source="a6lOTXQf3GXVWLe3gGw5-16" target="a6lOTXQf3GXVWLe3gGw5-10">
          <mxGeometry width="50" height="50" relative="1" as="geometry">
            <mxPoint x="570" y="187.5" as="sourcePoint" />
            <mxPoint x="641.6500000000001" y="161.19000000000005" as="targetPoint" />
          </mxGeometry>
        </mxCell>
        <mxCell id="a6lOTXQf3GXVWLe3gGw5-38" value="" style="endArrow=classic;html=1;rounded=0;exitX=0.5;exitY=0.5;exitDx=0;exitDy=0;exitPerimeter=0;entryX=1;entryY=0.5;entryDx=0;entryDy=0;" edge="1" parent="1" source="a6lOTXQf3GXVWLe3gGw5-5" target="a6lOTXQf3GXVWLe3gGw5-39">
          <mxGeometry width="50" height="50" relative="1" as="geometry">
            <mxPoint x="1055" y="385" as="sourcePoint" />
            <mxPoint x="967" y="362.5" as="targetPoint" />
          </mxGeometry>
        </mxCell>
        <mxCell id="a6lOTXQf3GXVWLe3gGw5-39" value="Asistir online" style="ellipse;whiteSpace=wrap;html=1;fillColor=#dae8fc;strokeColor=#6c8ebf;" vertex="1" parent="1">
          <mxGeometry x="735" y="512" width="100" height="44" as="geometry" />
        </mxCell>
        <mxCell id="a6lOTXQf3GXVWLe3gGw5-41" value="Borrar oferta" style="ellipse;whiteSpace=wrap;html=1;fillColor=#dae8fc;strokeColor=#6c8ebf;" vertex="1" parent="1">
          <mxGeometry x="735" y="560" width="100" height="50" as="geometry" />
        </mxCell>
        <mxCell id="a6lOTXQf3GXVWLe3gGw5-42" value="&lt;div&gt;&lt;br&gt;&lt;/div&gt;" style="endArrow=classic;html=1;rounded=0;exitX=0.5;exitY=0.5;exitDx=0;exitDy=0;entryX=1;entryY=0.5;entryDx=0;entryDy=0;exitPerimeter=0;" edge="1" parent="1" source="a6lOTXQf3GXVWLe3gGw5-5" target="a6lOTXQf3GXVWLe3gGw5-41">
          <mxGeometry width="50" height="50" relative="1" as="geometry">
            <mxPoint x="500" y="627.5" as="sourcePoint" />
            <mxPoint x="400" y="627.5" as="targetPoint" />
          </mxGeometry>
        </mxCell>
        <mxCell id="a6lOTXQf3GXVWLe3gGw5-43" value="Dar de alta" style="ellipse;whiteSpace=wrap;html=1;fillColor=#dae8fc;strokeColor=#6c8ebf;" vertex="1" parent="1">
          <mxGeometry x="285" y="110" width="100" height="44" as="geometry" />
        </mxCell>
        <mxCell id="a6lOTXQf3GXVWLe3gGw5-44" value="" style="endArrow=classic;html=1;rounded=0;entryX=0;entryY=0.5;entryDx=0;entryDy=0;" edge="1" parent="1" target="a6lOTXQf3GXVWLe3gGw5-43">
          <mxGeometry width="50" height="50" relative="1" as="geometry">
            <mxPoint x="130" y="200" as="sourcePoint" />
            <mxPoint x="290" y="263.0000000000001" as="targetPoint" />
          </mxGeometry>
        </mxCell>
        <mxCell id="a6lOTXQf3GXVWLe3gGw5-46" value="Dar de baja" style="ellipse;whiteSpace=wrap;html=1;fillColor=#dae8fc;strokeColor=#6c8ebf;" vertex="1" parent="1">
          <mxGeometry x="450" y="433" width="100" height="44" as="geometry" />
        </mxCell>
        <mxCell id="a6lOTXQf3GXVWLe3gGw5-47" value="extend" style="endArrow=classic;html=1;rounded=0;exitX=0;exitY=0;exitDx=0;exitDy=0;dashed=1;entryX=0.5;entryY=1;entryDx=0;entryDy=0;" edge="1" parent="1" source="a6lOTXQf3GXVWLe3gGw5-46" target="a6lOTXQf3GXVWLe3gGw5-20">
          <mxGeometry width="50" height="50" relative="1" as="geometry">
            <mxPoint x="567.5" y="413.6500000000001" as="sourcePoint" />
            <mxPoint x="364.1400000000001" y="288.68499999999995" as="targetPoint" />
          </mxGeometry>
        </mxCell>
        <mxCell id="a6lOTXQf3GXVWLe3gGw5-48" value="" style="endArrow=classic;html=1;rounded=0;exitX=0.5;exitY=0.5;exitDx=0;exitDy=0;entryX=1;entryY=0.5;entryDx=0;entryDy=0;exitPerimeter=0;" edge="1" parent="1" source="a6lOTXQf3GXVWLe3gGw5-5" target="a6lOTXQf3GXVWLe3gGw5-15">
          <mxGeometry width="50" height="50" relative="1" as="geometry">
            <mxPoint x="1055" y="495" as="sourcePoint" />
            <mxPoint x="789.9999999999968" y="441.0000000000002" as="targetPoint" />
          </mxGeometry>
        </mxCell>
      </root>
    </mxGraphModel>
  </diagram>
</mxfile>
